<?xml version="1.0" encoding="UTF-8"?>
<svg xmlns="http://www.w3.org/2000/svg" width="360" height="48" viewBox="0 0 360 48" role="img" aria-labelledby="title desc">
  <title id="title">Tether USD Bridged NEW20 – Logo (Light)</title>
  <desc id="desc">White logotype with blue accent, designed for dark backgrounds.</desc>
  <defs>
    <linearGradient id="accentGrad" x1="0%" y1="0%" x2="100%" y2="0%">
      <stop offset="0%" stop-color="#60A5FA"/>
      <stop offset="100%" stop-color="#22D3EE"/>
    </linearGradient>
  </defs>
  <!-- Coin mark -->
  <g transform="translate(6,6)">
    <circle cx="18" cy="18" r="18" fill="none" stroke="url(#accentGrad)" stroke-width="2.5"/>
    <circle cx="18" cy="18" r="12" fill="none" stroke="#60A5FA" stroke-width="1.5" opacity="0.6"/>
    <path d="M18 8c.6 0 1 .4 1 1v1.1c2.3.3 4 1.6 4 3.2 0 .7-.6 1.3-1.3 1.3-.3 0-.6-.1-.8-.3-.7-.5-1.3-.8-1.9-.9v3.1c3 .8 4.5 2 4.5 4.3 0 2.2-1.8 3.8-4.5 4v1.2c0 .6-.4 1-1 1s-1-.4-1-1v-1.2c-1.4-.2-2.7-.7-3.8-1.5-.3-.2-.5-.6-.5-1 0-.7.6-1.3 1.3-1.3.2 0 .5.1.7.2.7.5 1.5.9 2.3 1.1v-3.2c-2.9-.8-4.3-1.9-4.3-4.2 0-2.2 1.7-3.7 4.3-4V9c0-.6.4-1 1-1z" fill="#ffffff"/>
  </g>
  <!-- Wordmark -->
  <g transform="translate(58,14)" fill="#ffffff">
    <text x="0" y="12" font-family="Segoe UI, Inter, Arial, Helvetica, sans-serif" font-size="16" font-weight="700" letter-spacing="0.2">Tether USD</text>
  </g>
  <g transform="translate(58,14)">
    <text x="0" y="28" font-family="Segoe UI, Inter, Arial, Helvetica, sans-serif" font-size="13.5" font-weight="600" fill="url(#accentGrad)">Bridged #NEW20</text>
  </g>
</svg>
